<?xml version="1.0" encoding="UTF-8"?>
<svg width="40" height="40" enable-background="new 0 0 391.935 389.617" viewBox="0 0 391.935 389.617" xmlns="http://www.w3.org/2000/svg">
 <path d="m89.148,362.5s-.131,1.709.788,2.23c1.053.396 5.124,6.57 5.518,9.854 .131,2.498-.658,1.971-1.313,1.445-.919-.393-13.4-8.146-9.196-13.4 4.203-5.24 4.203-.12 4.203-.12z" fill="#9d9a90" fill-rule="evenodd" stroke="#000" stroke-linecap="round" stroke-miterlimit="2.4142" stroke-width=".36"/>
 <path d="m85.732,363.55c-.129.656 0,2.1 1.316,2.758 1.182.654 5.252,6.828 6.565,9.854 1.314,2.889-7.355,1.311-8.406,1.176-1.05-.129-8.145-1.439-8.014-6.039 0,0 .263-3.68.395-4.6 1.315-8.54 8.144-3.15 8.144-3.15z" fill="#9d9a90" fill-rule="evenodd" stroke="#000" stroke-linecap="round" stroke-miterlimit="2.4142" stroke-width=".36"/>
 <path d="m64.191,327.03c8.538,23.119 3.546,28.111 6.961,30.738 3.678,2.756 1.051,5.91 2.101,5.91 .921-.129 2.759-1.182 2.891.789s1.182,1.967 2.101.92 1.182-1.182 1.182-1.182 .527-.924 1.577-.656c1.053,0 1.577-.268 1.577-.396 0,0 1.577-.129 1.709.262 .523,1.313 1.969.92 1.969.92s1.577-1.973 2.496-1.053c.526.527.395-1.178.395-1.178s.788-2.891-.526-5.127c-1.182-1.707-3.941-3.809-4.597-5.779-.787-1.838-3.941-13.133-3.941-13.793-.132-.656-1.314-3.811-1.709-7.355 0-.525-.787-3.15-.787-4.068-1.05-5.125-1.577-9.197-1.577-9.197s-1.313-7.49-1.577-9.457c-.393-1.973-1.707-13.793 0-16.818 7.227-13.529 36.257-48.34 41.512-53.068 6.961-6.303 15.499-23.776 15.499-23.776-15.238-5.91-64.235,42.823-65.943,47.159-1.575,4.336-11.558,19.838-15.762,24.039-4.336,4.336.919,11.563 3.283,14.184 2.23,2.65.259-.76 11.163,28.01z" fill="#a57860" fill-rule="evenodd" stroke="#000" stroke-linecap="round" stroke-miterlimit="2.4142" stroke-width=".36"/>
 <path d="m128.43,214.98c-13.137,13.529-37.177,32.706-48.078,49.125-2.891,4.336-16.157,19.439-14.845,27.064 1.316,7.484 0,12.738.658,16.811 2.627,16.42-1.969,5.256-3.022,1.313-.919-3.939-3.151-8.275-5.123-9.193-2.101-1.055-4.86-3.154-2.496-3.02 4.73.129 6.042-13.535 5.387-15.502s0-4.6 0-4.6 .526-5.119 3.415-9.719c3.022-4.6 12.086-47.025 12.086-47.025l52.018-5.24z" fill="#8e6851" fill-rule="evenodd"/>
 <path d="m61.562,120.14c-2.625.919-7.88,3.81-14.186,6.832-6.568,3.415-10.115,9.588-13.137,13.529-2.888,4.071-4.597,23.12-4.597,23.12s1.313,6.961-.395,14.843 2.759-2.63 3.022-5.65l.263,3.286 1.051-2.89s2.888-4.992 3.677-7.882c.656-3.022 1.577-8.277 1.577-8.277l.655,4.206s.656-6.831 3.284-9.459c2.628-2.76 18.786-31.66 18.786-31.66z" fill="#e1e0de" fill-rule="evenodd" stroke="#000" stroke-linecap="round" stroke-miterlimit="2.4142" stroke-width=".144"/>
 <path d="m64.191,118.16c-3.549.655-16.42,4.205-20.624,7.619h.919s-4.202,1.445-5.255,3.022c-.919,1.706-4.07,3.415-4.07,3.415l1.311-.392s-4.859,1.445-5.516,8.406-1.972,19.703-1.972,19.703 .264,3.68.921,5.387 1.445-6.961 3.02-9.983v3.415s1.313-4.729 1.313-6.306c0-1.708 3.678-9.982 3.678-9.982l.658,3.021s0-4.335.918-5.254c1.051-1.053 4.336-2.627 4.992-4.336 .656-1.577 7.224-6.566 7.224-6.566l12.483-11.17z" fill="#ac7d64" fill-rule="evenodd"/>
 <path d="m64.191,118.16c-3.549.655-16.42,4.205-20.624,7.619h.919s-4.202,1.445-5.255,3.022c-.919,1.706-4.07,3.415-4.07,3.415l1.311-.392s-4.859,1.445-5.516,8.406-1.972,19.703-1.972,19.703 .264,3.68.921,5.387" fill="none" stroke="#000" stroke-linecap="round" stroke-miterlimit="2.4142" stroke-width=".36"/>
 <path d="m300.64,363.02s0,1.574 1.05,1.971c1.051.521 5.649,6.566 6.173,9.586 .264,2.498-.523,1.971-1.313,1.58-.787-.527-13.661-8.146-9.72-13.137 4.07-4.99 3.81,0 3.81,0z" fill="#9d9a90" fill-rule="evenodd" stroke="#000" stroke-linecap="round" stroke-miterlimit="2.4142" stroke-width=".36"/>
 <path d="m297.22,364.07c0,.396.132,1.973 1.577,2.498 1.313.656 5.649,6.701 7.227,9.592s-7.356,1.311-8.541,1.176c-1.182-.129-8.406-1.439-8.538-5.91 0,0 0-3.547.132-4.465 .78-8.28 8.14-2.89 8.14-2.89z" fill="#9d9a90" fill-rule="evenodd" stroke="#000" stroke-linecap="round" stroke-miterlimit="2.4142" stroke-width=".36"/>
 <path d="m41.858,367.49s-.131,1.574.919,2.1c.79.527 4.994,6.701 5.386,9.855 .263,2.492-.656,2.1-1.445,1.574-.787-.393-12.74-8.275-8.538-13.4 4.205-5.25 3.678-.12 3.678-.12z" fill="#9d9a90" fill-rule="evenodd" stroke="#000" stroke-linecap="round" stroke-miterlimit="2.4142" stroke-width=".36"/>
 <path d="m38.443,368.54c0,.527.132,2.105 1.314,2.762 1.314.527 5.254,6.701 6.568,9.721s-7.227,1.445-8.409,1.314c-1.05-.133-8.143-1.445-7.879-6.043 0,0 .129-3.682.261-4.6 1.314-8.54 8.145-3.15 8.145-3.15z" fill="#9d9a90" fill-rule="evenodd" stroke="#000" stroke-linecap="round" stroke-miterlimit="2.4142" stroke-width=".36"/>
 <path d="m265.7,374.19s0,1.574 1.053,2.102c.92.393 5.385,6.303 5.91,9.457 .396,2.627-.525,2.1-1.313,1.707-.787-.525-13.137-7.619-9.327-13.002 3.94-5.4 3.68-.27 3.68-.27z" fill="#9d9a90" fill-rule="evenodd" stroke="#000" stroke-linecap="round" stroke-miterlimit="2.4142" stroke-width=".36"/>
 <path d="m262.41,375.37c0,.527.132,2.102 1.446,2.629 1.313.654 5.518,6.564 7.092,9.455 1.445,3.021-7.224,1.709-8.274,1.709-1.182,0-8.146-1.053-8.276-5.652 0,0 0-3.676.13-4.594 .66-8.55 7.88-3.56 7.88-3.56z" fill="#9d9a90" fill-rule="evenodd" stroke="#000" stroke-linecap="round" stroke-miterlimit="2.4142" stroke-width=".36"/>
 <path d="m16.637,327.03c.788,1.971 1.314,5.383 2.364,7.748 2.496,12.48 3.81,23.908 3.941,26.801 .395,4.465.526,6.174 1.577,6.174 .918-.135 5.779-.791 6.042,1.18 .132,1.973.132,1.445.919.264 .395-.66 1.053-.66 1.053-.66s1.838.264 1.838.527 1.708.264 1.972,0 2.232,0 2.756.525c.395.264 1.314-1.182 1.314-1.182s1.314.129 1.708.525c-.132,0 .131-2.625.131-2.625s-.526-2.498-.395-3.547c.132-.791-.392-4.336-4.204-8.275-1.445-1.445-3.546-8.672-3.675-9.461 0-.656-1.182-3.939-1.577-7.619-.132-.393-.921-2.365-1.051-3.283 0-3.809-1.053-8.012-1.053-8.012-.656-6.699-1.969-13.529-1.969-13.529s-4.336-18.129-3.283-20.492c.919-2.365 9.193-8.936 12.215-10.246 2.889-1.182 23.776-9.854 40.459-24.699 27.979-24.824 28.243-29.03 31.131-32.443 1.971-2.235 4.73-1.708 4.73-1.708l-1.317,2.234s10.247-4.599 17.211-4.335l-1.314,2.101s10.773-3.417 16.684-2.364l-2.891,1.311s9.852-1.704 11.823-.392c1.969,1.445 12.479,5.389 15.499,5.389s16.814,2.23 30.476,1.575c13.924-.656 17.865-.919 17.865-.919l-.394,1.312s3.021-1.709 4.335-1.709 12.217-.655 13.399-1.311c0,0 6.961,9.849 8.274,15.764 1.313,6.04 1.709,42.56 1.051,49.524-.656,6.828-1.314,7.875-1.706,11.164-.264,3.283 1.05,7.619 3.02,9.85 1.972,2.363 3.548,12.48 3.941,18.391 .264,6.045 0,33.631 0,38.357 0,4.6 0,6.174.919,6.174 1.052,0 3.021-.525 3.021,1.445 0,2.102.92,3.418 1.05,2.102 .132-2.234 2.104-3.68 2.104-3.68s1.969-.521 3.02.133c.132.135 2.101,1.184 2.232.135 0,0 .526-.66 1.186-.789 .392-.135.787-.791.787-.791s1.05-.654 1.576-.129c.656.393.261.785.261.785s2.104-2.23 1.316-3.148c-.921-.791-3.022-4.734-3.681-6.701-.655-2.105-2.101-9.854-2.101-10.51 0-.654-1.313-5.779-1.709-9.461-.26-3.541-1.576-26.398-.787-29.158s3.283-11.43 2.364-17.076c-1.051-5.781-1.577-9.064-1.051-14.447 .524-5.127 4.598-39.412 5.387-41.25 .919-1.842 4.859-15.5 8.274-17.339 2.759-1.445 4.336,1.048 4.992,1.967 .655,1.053.655,7.753.655,9.591s.135,13.792.79,16.947 1.969,33.104 1.709,39.014c-.396,5.91-1.314,9.854.918,14.846 2.364,4.99 4.072,15.758 4.072,24.693 0,8.932-1.313,28.768-1.708,31.525-.395,2.104.658.918 1.051.658 .657-.396 1.576-.262 1.576.785 0,.92.788,4.207 1.182,2.105 .264-1.842 1.709-2.498 2.496-3.287 .658-.521 1.577-.918 2.104-.656 0,0 .655-.133.918-.262 0,0 1.183.525 1.97.789l.787-.393s.658-.268 1.184-.525c.656-.662.92-.398.92-.398s.787.398 1.314.789c.394.527.786-3.281-.396-5.383-1.183-2.234-2.76-8.408-2.76-10.902 0-2.498-.918-9.328-.655-13.008 .132-3.547-.526-19.574.393-22.986 .658-3.545.79-10.771-.919-19.707-1.445-7.613 1.577-29.424 2.628-32.84 1.05-3.149 4.991-24.824 5.518-26.27 .395-1.445 4.072-12.347 5.255-15.108 1.051-2.886 3.938-14.185 5.122-16.549 1.052-2.235 3.679-8.012 3.679-9.329 0-1.445 8.143-11.821 9.456-16.681s6.043-24.697 8.014-26.667 4.597-9.327 5.517-11.691c.789-2.364 10.51-23.513 12.742-31.79l1.708-4.336 .526,1.185s1.577-6.437 1.969-8.278c.264-1.837 2.892-13.268 4.86-17.602 2.104-4.205 2.76-9.722 2.76-11.691s.787-9.064 1.05-9.72c.396-.658 1.183-5.649 1.314-7.095 .132-1.706 4.862-5.779-.919-9.849-5.782-4.075-9.457-7.622-9.457-7.622-.79-.787-5.123-1.969-6.569-1.969-1.444,0-7.881.787-9.722.395-1.838-.526-4.859-.263-7.75,1.312-4.597,2.498-4.07,1.313-6.306,2.232-2.101,1.053-7.616,7.095-5.384,15.896 2.364,8.672 2.232,6.832 2.232,11.165 0,4.336-5.386,23.12-8.014,26.667-2.628,3.68-13.267,19.31-15.631,22.593-2.232,3.285-9.854,7.226-13.531,7.622-3.546.261-5.91-1.708-7.879-1.708s-6.833-2.628-19.048-.919c-12.218,1.575-27.061,6.83-37.308,6.171-10.114-.656-22.725,3.68-49.523,0-5.384-.656-31.657-9.849-48.864-9.849-17.473,0-25.617-3.023-46.767,2.625 0,0-14.843,3.941-19.309,8.54-4.728,4.597-11.955,8.275-15.501,22.723-3.678,14.453-3.415,30.346-3.022,35.862 .658,9.327 4.599,19.051 5.913,24.961 1.05,4.729 6.96,29.025-8.146,45.445 0,0-15.499,17.607-20.098,20.498-18.502,11.52-16.137,11-17.583,14.15-1.182,3.41 2.759,10.9 4.729,14.184 1.972,3.412 5.913,14.582 5.913,14.582 1.969,5.53 3.941,10.78 5.778,14.46z" fill="#ac7d64" fill-rule="evenodd" stroke="#000" stroke-linecap="round" stroke-miterlimit="2.4142" stroke-width=".36"/>
 <path d="m323.1,173.6c.263,1.053 0,8.409-1.444,11.429-1.446,3.022-4.073,5.386-4.992,8.408-.787,2.89-6.569,11.428-8.538,12.347-1.972,1.052-7.486,3.68-9.327,5.125-1.838,1.445-2.628,4.594-7.488,7.485-4.729,2.761-11.954,6.178-13.266,6.178s-4.991-1.316-7.226,3.02c-2.364,4.202-2.233-1.579-.394-4.336s12.872-14.582 14.054-16.812c1.185-2.105 3.941-6.7 6.7-8.016 2.891-1.312 11.954-5.777 15.369-8.931 3.43-3.16 15.77-19.97 16.56-15.9z" fill="#a1755e" fill-rule="evenodd"/>
 <path d="m361.98,40.532c.526.526 2.628,5.516 2.235,8.143-.526,2.496-.79,2.496-.922,3.417-.26,1.048-1.705,2.625-.787,3.543 .787.79 1.183,1.053 1.183,1.445 0,.527.132,3.417-.132,4.468-.396,1.05.658.658.789-1.05 .262-1.445 1.97-6.437 2.628-7.358s.918-5.384.918-5.908c.132-.527.919-2.104.919-2.104s1.184-3.022-3.809-5.515c-4.87-2.63-4.73-1.316-3.03.919z" fill="#a0725b" fill-rule="evenodd"/>
 <path d="m325.86,57.213c0,1.577.132,8.146.919,9.196s6.042,13.397 12.087,24.302c1.577,2.627-4.6,11.296-4.862,14.45-.13,3.152-3.415,9.325-4.992,13.003-1.442,3.548-11.953,13.137-12.61,15.109s-4.991,5.384-5.91,4.465c-1.051-.921-3.151-9.064-10.51-10.904-7.487-1.709-3.81,0-3.678,2.627s1.445,15.896 0,14.714c-1.445-1.185-4.073-8.538-6.697-11.034-2.76-2.499-7.62-12.874-11.036-14.977-3.547-2.101-9.589-5.252-14.711-3.81-5.124,1.445-8.538,4.597-10.51,7.358-1.97,2.891-2.891,4.465-.526,6.961 2.234,2.496 9.195,8.538 9.195,13.137 0,4.729-.393,5.911-1.183,7.224-.655,1.446-2.232,6.174-3.678,6.306-1.444.261 2.104-8.801.922-11.297-1.186-2.498 0-4.597-7.095-8.804-7.093-4.07-3.546-3.938-5.65-6.434-2.232-2.364-4.99-6.568-9.193-7.355-4.072-.788-9.719-1.314-10.641-1.972 0,0 5.255-.132 16.814-2.496 0,0 23.381-5.911 32.576-3.81 0,0 10.773,3.415 13.794,2.496 0,0 8.537-1.969 13.268-8.143 4.597-6.305 11.297-17.078 12.479-18.26 1.182-1.05 4.467-6.174 4.99-8.014 .396-1.837 7.62-19.571 4.86-29.159 0-.014 1.18-1.199 1.58,5.106z" fill="#a0725b" fill-rule="evenodd"/>
 <path d="m339.13,91.764c-5.123-.658-9.589-2.234-11.166-4.73-3.282-5.254-1.707-17.208-1.707-20.098 0-3.022 3.284,3.941 4.335,4.991 .921.919 2.628,7.224 5.254,9.196 .92.656 2.496,1.314 4.337,1.837l-1.04,8.804z" fill="#a0725b" fill-rule="evenodd"/>
 <path d="m340.18,82.96c3.81,1.053 8.932,1.446 12.479-.523 5.255-3.022 8.015-13.924 8.934-12.876 1.05,1.185-1.054,20.493-6.569,21.677-4.204,1.048-10.378,1.182-15.896.526l1.06-8.804z" fill="#ac7d64" fill-rule="evenodd"/>
 <g fill-rule="evenodd">
  <path d="m328.49,86.77c-3.283-4.599-1.973-15.893-1.973-18.916s3.022,3.415 4.073,4.468c.921,1.05 2.628,6.961 5.124,8.93 .918.658 2.494,1.316 4.467,1.84l-.922,8.014c-4.86-.658-8.94-1.972-10.77-4.336z" fill="#a87f69"/>
  <path d="m329.01,86.506c-3.151-3.809-2.232-14.711-2.232-17.733 0-2.891 2.759,3.022 3.81,3.941 .921,1.05 2.496,6.7 5.124,8.538 .918.658 2.494,1.445 4.467,1.972l-.922,7.224c-4.34-.527-8.15-1.838-10.25-3.942z" fill="#ae8e79"/>
  <path d="m329.54,86.246c-3.15-3.154-2.627-13.531-2.627-16.554 0-2.888 2.627,2.498 3.678,3.548 .921.919 2.496,6.174 5.124,8.143 .918.658 2.363,1.446 4.467,1.972l-.789,6.565c-4.07-.654-7.49-1.837-9.85-3.674z" fill="#b79d8c"/>
  <path d="m330.06,86.112c-3.02-2.496-2.888-12.479-2.888-15.499 0-2.891 2.363,2.101 3.414,3.02 .921.921 2.364,5.913 4.992,7.882 .921.656 2.495,1.445 4.599,1.972l-.789,5.779c-3.54-.656-6.82-1.578-9.32-3.154z" fill="#bdaa9d"/>
  <path d="m330.59,85.719c-3.02-1.706-3.151-11.165-3.151-14.187 0-2.891 2.101,1.577 3.151,2.496 .921,1.05 2.364,5.649 4.992,7.619 .921.658 2.364,1.313 4.599,1.84l-.658,5.123c-3.28-.527-6.17-1.445-8.93-2.891z" fill="#c4bab1"/>
 </g>
 <path d="m339.65,88.083c-2.891-.656-5.516-1.445-8.538-2.627-3.022-1.05-3.546-9.983-3.546-12.874 0-3.022 1.969.918 3.02,1.972 .921.919 2.232,5.252 4.992,7.225 .921.658 2.364,1.313 4.467,1.837l-.39,4.467z" fill="#cdcac6" fill-rule="evenodd"/>
 <g fill-rule="evenodd">
  <path d="m340.18,83.092c3.81,1.051 8.932,1.443 12.479-.655 5.255-2.891 7.751-13.269 8.67-12.218 1.182,1.182-1.313,19.311-6.306,20.493-4.336.918-10.378,1.182-15.765.395l.92-8.015z" fill="#b48c74"/>
  <path d="m340.18,83.092c3.81,1.182 8.932,1.443 12.479-.523 5.255-2.891 7.619-12.743 8.538-11.691 1.182,1.179-1.577,18.125-6.042,19.176-4.73,1.185-10.51,1.314-15.896.395l.92-7.357z" fill="#b99884"/>
  <path d="m340.18,83.224c3.81,1.05 8.932,1.445 12.479-.526 5.255-2.891 7.356-12.216 8.406-11.165 1.051,1.182-1.837,16.944-5.91,17.865-4.86,1.314-10.51,1.314-15.764.523l.78-6.697z" fill="#c2a796"/>
  <path d="m340.18,83.487c3.81.919 9.062,1.314 12.479-.658 5.255-2.891 7.356-11.691 8.274-10.639 1.051,1.182-2.232,15.762-5.646,16.552-4.992,1.445-10.642,1.445-15.765.524l.66-5.779z" fill="#cbb7a8"/>
  <path d="m340.18,83.616c3.81.919 9.062,1.316 12.479-.656 5.255-2.888 7.093-11.165 8.015-10.114 1.182,1.182-2.499,14.582-5.258,15.238-5.384,1.577-10.771,1.577-15.894.526l.65-4.994z" fill="#cfc5bb"/>
 </g>
 <path d="m340.05,83.616c3.81.919 9.193,1.316 12.61-.524 5.255-3.02 6.961-10.638 7.88-9.591 1.182,1.185-2.757,13.4-5.123,14.056-5.516,1.578-10.771,1.446-15.894.527l.52-4.468z" fill="#dad6d2" fill-rule="evenodd"/>
 <path d="m353.31,82.829s-2.364,2.104-4.992,2.495c-1.84.132-3.15.527-5.387-.263-2.101-.656-6.041-2.757-6.041-2.757s.263.655 1.84,1.312c1.575.526 3.02,2.496 5.255,2.89 2.232.264 4.333,0 5.647-.787 1.05-.658 2.758-1.706 3.941-2.627 .4-.395 1.19-1.313-.26-.263z" fill="#b5b2af" fill-rule="evenodd"/>
 <path d="m331.77,74.947c1.445,4.204 5.912,8.277 8.672,9.196s5.12,2.759 9.588.79c0,0 7.487-4.468 11.165-15.241" fill="none" stroke="#5c5956" stroke-linecap="round" stroke-miterlimit="2.4142" stroke-width=".144"/>
 <path d="m341.75,48.938c-.655-.263-3.415-1.445-4.07-2.496-3.68-4.992-4.992-6.042-7.227-4.336-1.445.918-2.496-2.493.921-7.619 5.517-8.274-16.552-1.445-6.173,19.969 .919,2.101 1.442,3.022 1.311,4.597-.262,1.445 2.76,2.101 3.547,3.154 .79.919 5.257,2.625 5.519,8.67 0,4.728 1.576,6.305 3.414,7.092s-.261-9.456 2.496-11.952c1.444-1.445 2.104-5.255 2.104-6.571 0-1.311-.132-6.434 0-6.697 .13-.265-1.84-3.811-1.84-3.811z" fill="#a0725b" fill-rule="evenodd"/>
 <path d="m328.88,43.684c1.054-.526-1.182,5.386 0,6.568s1.709,1.841 1.709,2.889c0,.921-.787,1.316-.655,2.103s-1.182.658-1.182,1.314-.132.921-.659.523c-.523-.523-3.414-4.465-3.941-5.91-.523-1.575.527.131 1.314-1.051 .78-1.182 2.89-6.041 3.41-6.436z" fill="#906750" fill-rule="evenodd"/>
 <path d="m340.97,51.171c1.313,1.708 1.969,8.145 1.182,10.77-.918,2.761-4.599,9.459-4.335,10.904s-.788-.131-.788-1.182c0-1.182 1.051-5.124 1.709-6.832 .393-1.575-.132-1.837-.789-2.233-.656-.392-5.124,0-6.699-1.708-1.576-1.575-2.494-3.413-1.971-3.02 .526.395 1.84,2.364 5.123,1.182 3.285-1.314 1.97-2.364 2.627-4.597 .788-2.103 1.051-1.445 1.051-3.022 .131-1.577-1.051-2.232-1.708-2.759-.655-.393-2.626-1.182-.13-.656 2.36.394 4.2,2.498 4.73,3.153z" fill="#906750" fill-rule="evenodd"/>
 <path d="m351.74,66.409c-2.498-6.964 1.183-13.398-2.103-15.37-.396-.919-6.306-.788-6.042,3.286 .523,5.646-.919,10.507-.919,10.507" fill="none" stroke="#ac7d64" stroke-linecap="round" stroke-miterlimit="2.4142" stroke-width="1.944"/>
 <g fill="none">
  <path d="m351.74,66.409c-2.364-6.438.787-12.479-2.234-14.316-.394-1.053-5.91-.79-5.647,2.888 .261,5.386-1.182,9.852-1.182,9.852" stroke="#b0856c"/>
  <path d="m351.74,66.409c-2.234-5.911.394-11.429-2.364-13.269-.395-1.048-5.518-.919-5.257,2.629 .132,4.86-1.442,9.062-1.442,9.062" stroke="#b78f78"/>
  <path d="m351.6,66.409c-1.969-5.255.134-10.507-2.364-12.216-.392-1.053-4.991-1.053-4.991,2.364 .131,4.465-1.574,8.274-1.574,8.274" stroke="#ba9781"/>
  <path d="m351.6,66.409c-1.969-4.729-.26-9.588-2.494-11.297-.394-.919-4.599-.919-4.599,2.101 0,4.205-1.837,7.75-1.837,7.75" stroke="#c1a18d"/>
  <path d="m351.48,66.409c-1.707-4.073-.525-8.67-2.495-10.115-.395-1.051-4.072-1.182-4.204,1.706-.132,3.812-1.969,6.963-1.969,6.963" stroke="#c8ac97"/>
  <path d="m351.48,66.409c-1.576-3.546-.918-7.75-2.495-9.196-.395-.918-3.809-1.05-4.072,1.577-.132,3.417-2.101,6.305-2.101,6.305" stroke="#cdb5a2"/>
  <path d="m351.48,66.409c-1.444-3.022-1.313-6.832-2.626-8.143-.396-.921-3.286-1.185-3.678,1.179-.396,3.022-2.364,5.65-2.364,5.65" stroke="#d5bfb0"/>
  <path d="m351.48,66.409c-1.313-2.496-1.707-5.911-2.758-7.093-.396-.918-2.891-1.182-3.284.919-.525,2.759-2.626,4.86-2.626,4.86" stroke="#d9c7bc"/>
  <path d="m351.34,66.409c-1.052-1.838-1.971-4.86-2.76-6.042-.395-1.05-2.496-1.313-3.022.656-.523,2.235-2.756,4.205-2.756,4.205" stroke="#ded2c8"/>
  <path d="m351.34,66.409c-1.052-1.314-2.365-3.941-2.892-4.992-.395-.919-1.972-1.446-2.627.263-.655,1.972-3.02,3.546-3.02,3.546" stroke="#e6dfd9"/>
 </g>
 <path d="m351.34,66.409c-.922-.788-2.892-3.022-3.023-3.941-.393-1.05-1.577-1.445-2.364,0-.658,1.577-3.15,2.759-3.15,2.759" fill="none" stroke="#eae8e5" stroke-linecap="round" stroke-miterlimit="2.4142" stroke-width="1.944"/>
 <path d="m352.26,79.677c-.788.524 2.891.395-2.102,4.597-3.021,2.496-6.567.788-7.882,0-.919-.526-3.81-2.627-2.89-4.072 1.053-1.314-2.233-1.575-1.971-5.647 .394-4.204 1.314-4.729 2.233-6.439 .918-1.837 4.072-4.857 5.255-4.857s2.496-5.779 4.729.524c.657,1.577 3.678,3.415 4.859,6.568 1.19,3.15.79,7.357-2.23,9.326z" fill="#eae8e5" fill-rule="evenodd"/>
 <path d="m352,79.807c-.525.266-3.021.79-6.306.658-1.445-26.14-12.742-6.305-6.174-.919 0,0-.264,1.05-.264,1.706 0,.395 2.104,3.417 5.519,4.072 3.546.656 1.313,0 1.182-.523-.263-.527-1.84-2.759-.524-3.286 1.312-.524 3.152-.393 4.86-.788 1.18-.262 1.7-.92 1.7-.92z" fill="#b3b3b3" fill-rule="evenodd"/>
 <path d="m353.58,78.232c.394-.658.525-3.415 0-4.205-.396-.788.918-2.627-.264-4.336-.656-1.05-1.445-2.099-2.757-2.232-1.446-.263-1.84-1.443-3.153-1.708-1.314-.129-2.104,0-3.023.658-.786.658-3.414,1.184-4.728,2.627-1.314,1.445-1.708,4.862-1.314,5.782 .396.918-.655,1.969.132,3.151s2.496,1.97 2.496,1.97-1.313-1.97-1.313-2.627c-.263-1.969 1.445-3.283 1.445-3.283s.787,0 1.445,1.708 1.574,2.364 2.756,2.759c1.054.261 2.892.788 4.731-1.313 1.838-2.235 1.314-1.972.787-2.364-.524-.264.657-.919 1.051-.527 .264.527.919,1.445.919,1.445s.263,3.415-.394,3.678l1.16-1.183z" fill="#333" fill-rule="evenodd"/>
 <path d="m348.85,85.062s-1.841-.656-2.367-.526c-.524,0-2.102.526-2.102.526s1.45,1.05 4.47,0z" fill="#636261" fill-rule="evenodd"/>
 <path d="m343.07,68.381c-.787.655-1.576,1.837-.655,3.02 1.051,1.182 3.415,1.709 3.941,1.84 .392,0 .264-2.495.264-2.495s.787.263.787.918 .131,2.101-.132,2.627c-1.839,3.678.394,4.204 1.182,3.81 .787-.526 2.364-1.97 1.577-2.891-.656-.656.131-1.577.131-1.577s2.496-.787 1.971.921-1.051-.79-1.314-.134 1.051,1.184.657,1.316c-.262.395-1.052,2.364-2.758,3.151s-3.418.263-4.468-.132c-1.051-.523-2.364-2.493-2.496-3.151s1.182-.658 1.313-1.05c.132-.395-1.182-.656-1.442-.526s-1.445.79-1.709,2.103 .655,3.415 1.314,3.808c0,0-1.84-.788-2.235-1.443-.524-.658-.919-1.053-.788-2.759 .132-1.445-.523-4.859 1.314-6.7 1.97-1.708-.264-.523 3.414-1.969l1.973-1.185 1.837-.131s-.787.397-.787.921c-.26.92-2.88,1.708-2.88,1.708z" fill="#191919" fill-rule="evenodd"/>
 <path d="m353.84,71.664s-.525,1.708-.918,2.101c-.264.263-.396.921 0,1.182 .393.395.656-.919.656-1.182 0-.393.26-2.101.26-2.101z" fill="#191919" fill-rule="evenodd"/>
 <path d="m349.77,68.381c1.05,0 3.414.919 2.89,3.151-.525,2.496-3.678.658-3.678.658s-2.76-3.809.79-3.809z" fill="#404040" fill-rule="evenodd"/>
 <path d="m345.83,69.168c.655.132.395,2.364.131,2.888-.395.526-2.363-.524-2.759-1.443-.39-.787-.13-2.232 2.63-1.445z" fill="#404040" fill-rule="evenodd"/>
 <path d="m351.87,79.938c-.394.134-4.071.658-7.619.526 0,0-3.547-.263-4.334-.919 0,0 .264.526.394.526 .262,0 2.498.787 6.436.655 4.07-.13 5.12-.788 5.12-.788z" fill="#8c8c8c" fill-rule="evenodd"/>
 <path d="m346.62,39.216c.26-1.048.128-2.233.918-2.756 .787-.526-.79-2.759-.131-3.417s-.396-1.577-.787-1.179c-.527.26-1.054.655-1.841.26-.919-.26-.919.395-.132,1.314 .655,1.05.789,2.364.919,3.809 .12,1.445.65,3.154 1.05,1.969z" fill="#a0725b" fill-rule="evenodd"/>
 <path d="m355.81,32.519c-.396,1.182.525,2.756 1.181,4.073 .527,1.313.264,5.91-1.313,6.566-1.707.658.263-2.364-.656-4.202-1.051-1.837-1.84-4.728-1.708-5.778s1.708-3.81 2.364-3.286c.67.525.14,2.627.14,2.627z" fill="#a0725b" fill-rule="evenodd"/>
 <path d="m361.2,55.244c-.658.132-3.941-.131-4.465-.656-.659-.395.26-1.447.26-1.447s4.59,2.103 4.2,2.103z" fill="#c89174" fill-rule="evenodd"/>
 <path d="m363.3,51.434s.527-.526-.132-.658c-.655-.261-1.05-.656-2.232-.524-1.182.264-2.496.788-2.496.788l.659-.919s.919-.658.392-.523c-1.182.393-2.364,2.888-2.364,3.151-.132.393.922.132.922.132l5.25-1.447z" fill="#735344" fill-rule="evenodd"/>
 <path d="m356.86,54.193c-1.053-.395 1.705-3.286 2.492-3.154 .922,0 1.841-.656 3.682,0 1.05.263.918,3.286-.922,3.941 0,0-.65.922-5.25-.787z" fill="#150f0c" fill-rule="evenodd"/>
 <path d="m360.28,51.171c3.283-.395 3.81,3.677-.263,3.546-5.13-.129-2.24-3.283.26-3.546z" fill="#0b0805" fill-rule="evenodd"/>
 <path d="m362.38,51.566c.659-.263.659.656.132.788-.4.13-.79-.393-.13-.788z" fill="#e5e1dd" fill-rule="evenodd"/>
 <path d="m330.59,51.827s-1.313-.132-.655-.524c.655-.263 1.838-.787 3.02-.787 1.313,0 2.232.261 2.232.261l-1.048-.787s-2.628.131-2.104-.132c3.285-1.182 5.649,3.154 5.911,3.941 .131.527-2.103-1.314-2.103-1.314l-5.26-.658z" fill="#735344" fill-rule="evenodd"/>
 <path d="m337.29,53.404c.131,0 .261.921-.526,1.314-.92.395-2.889,1.971-3.81,2.103-1.051,0-2.101-.526-1.575-.526 .394,0 1.313.395 1.971,0 .655-.261 3.02-1.838 2.364-1.969-.65-.133 1.58-.922 1.58-.922z" fill="#735344" fill-rule="evenodd"/>
 <path d="m337.29,53.538c.787-.397-2.232-2.761-3.151-2.63-.789,0-1.84-.261-3.549.658-.919.395-.787,3.283 1.577,3.678-.01,0 .78.79 5.12-1.706z" fill="#150f0c" fill-rule="evenodd"/>
 <path d="m333.35,51.303c-3.151,0-3.151,4.073.789,3.415 5.12-.92 1.7-3.547-.79-3.415z" fill="#0b0805" fill-rule="evenodd"/>
 <path d="m341.1,45.261c-1.314-.658-3.285-1.709-4.204-2.891-1.052-1.183-1.575-1.969-2.628-2.232-1.182-.395.396-1.051 1.446-.921 .918.131 6.567,2.63 6.831,4.207 .39,1.442.52,3.019-1.45,1.837z" fill="#bb8c6c" fill-rule="evenodd"/>
 <path d="m342.28,29.496c-1.182-.263-1.445-.787-2.89-.523-1.314.395-3.678,1.05-2.496,1.05 2.759.131 6.7,5.518 6.963,6.568 .393,1.182 1.051-.131.393-1.445s-1.051-3.415-1.051-3.415l-.91-2.235z" fill="#bb8c6c" fill-rule="evenodd"/>
 <path d="m360.67,39.348c1.442,1.445 3.677,6.568 3.02,8.277-.655,1.837-2.364.395-3.283.526-1.054.131-3.286,1.311-2.628-.526 .655-1.709 2.233-5.386 2.102-6.174-.13-.919 0-2.89.79-2.103z" fill="#bb8c6c" fill-rule="evenodd"/>
 <path d="m363.04,57.213s-2.364.921-3.682.658c-1.311-.393-.787,2.101.132,2.627 2.891,1.443-.132,8.014-.787,9.72s0,2.627 1.445-.658c1.58-3.283 4.34-11.162 2.9-12.347z" fill="#bb8c6c" fill-rule="evenodd"/>
 <path d="m354.76,50.516c-.787.392-2.758,4.202-3.153,7.224-.26,2.891.527,0 .921-.658 .262-.655 1.577-4.988 2.232-5.12 .65-.135 1.31-2.365 0-1.446z" fill="#a0725b" fill-rule="evenodd"/>
 <path d="m329.93,30.678c-.79-.524-4.205-7.616-5.255-9.456-1.183-1.709-3.81-5.911-9.589-9.72s-7.882-6.305-9.063-7.227-9.723-6.437-9.459-.264c.132,6.306 1.969,10.51 2.232,12.611 .263,1.972 1.053,7.095 6.044,12.611s10.902,7.487 12.085,8.145c1.182.526 4.201,1.708 4.99,3.415 0,0 1.841-3.415 1.709-4.465s1.313-3.286 3.415-3.678c.92-.263 2.89-1.972 2.89-1.972z" fill="#1e1612" fill-rule="evenodd"/>
 <path d="m326.65,31.205c-4.072-3.022-1.05-10.378-10.375-17.339-4.072-3.022-11.955-8.801-13.927-9.459-1.837-.656-3.939-1.182-3.676,3.941 .262,4.991 3.415,12.347 3.547,13.792 .129,1.577 6.568,7.093 6.961,8.669 .395,1.708 10.771,6.568 12.873,7.095 0,.001 3.15-7.75 4.6-6.699z" fill="#5b453c" fill-rule="evenodd" stroke="#3c2c25" stroke-linecap="round" stroke-miterlimit="2.4142" stroke-width="1.152"/>
 <path d="m324.15,27.791c-1.444-2.364-1.05-6.7-9.719-12.479-4.729-3.286-8.802-6.571-9.327-6.174-.525.392-.396.788 1.708,2.888 1.972,2.101 8.933,9.852 8.013,10.115-.789.395-3.021-.132-4.203,0-1.314.395 5.778,3.02 4.991,4.205-.788,1.313-5.78-.658-5.255.524 .526,1.314 6.306,2.498 7.883,4.597s4.596,3.285 4.859,2.498c.26-.656 3.94-1.578 1.05-6.174z" fill="#41312b" fill-rule="evenodd" stroke="#4d3a33" stroke-linecap="round" stroke-miterlimit="2.4142" stroke-width="1.152"/>
 <path d="m323.63,28.051s-2.364-6.042-4.335-7.093c-1.971-.918-1.446-.263-.394,1.314s3.938,7.095 2.888,7.224c-1.05.264.659,4.205 2.103,3.681 1.3-.395 2.22-2.76-.27-5.126z" fill="#2b211d" fill-rule="evenodd"/>
 <path d="m315.35,13.34c.921.787 5.123,1.445 6.831,3.81 1.445,2.364 2.759,2.364 3.415,6.173 .656,3.68.918,3.68 0,4.336 0,0 .656,1.575 1.577,1.575 4.728-.132.131,3.943.131,3.943-2.495,1.574-2.627,1.18-3.022,2.098-1.708,3.812-.787-.918-.787-.918l.394-1.18s-.394-1.313.394-1.313c.658.129 3.415,0 .527-1.053 0,0 2.759-.524-.659-.919 0,0 .79-1.577-1.444-1.84 0,0-.261-1.706.789-1.97 1.183-.132.655-.787-.526-1.182 0,0 2.364-.395 1.054-1.05 0,0-.134-1.314-.659-2.232-.526-.79-2.364-3.68-2.364-3.68s-1.313-1.575-2.495-2.364-3.15-2.234-3.15-2.234z" fill="#ccc" fill-rule="evenodd" stroke="#b3b3b3" stroke-linecap="round" stroke-miterlimit="2.4142" stroke-width=".792"/>
 <path d="m298.4,12.421c0-.919-.657-2.627-.262-3.022 .262-.393.655-1.446 1.708-.788s3.546,3.81 4.465,4.336c.92.393 2.101,2.099 0,1.706-1.972-.395-2.232-.131-2.364.658-.263.918-.132,3.415.788,4.333 1.05.788 4.862,1.972 4.599,2.76-.396.658-3.417-1.053-3.417.131-.132,3.284 5.518,8.931 3.021,7.882-2.627-1.05-6.174-6.832-6.699-8.669-.393-1.84-.788-5.649-.788-5.649l-.657.392 .263-1.706-.66-2.364z" fill="#ccc" fill-rule="evenodd" stroke="#b3b3b3" stroke-linecap="round" stroke-miterlimit="2.4142" stroke-width=".792"/>
 <path d="m319.29,15.572c-.527-.129 2.494,1.316 5.122,5.913 .79,1.311 1.313,4.073.655,4.729s-1.442,1.05-1.442,1.05-.132-.395.396-.787c.392-.395 1.047-.79.918-2.104-.263-1.311-.79-2.496-1.052-3.151-.26-.659-4.34-5.518-4.6-5.65z" fill="#f0f0f0" fill-rule="evenodd"/>
 <path d="m299.72,10.583c.526.787.922,3.415 1.052,4.202 .132.919.394,4.597.656,5.123 .132.524 2.102,3.941.264,2.496-1.313-.919-1.577-5.516-1.577-5.914-.132-.392.132-2.625-.132-3.151-.13-.526-.26-2.756-.26-2.756z" fill="#f0f0f0" fill-rule="evenodd"/>
 <path d="m361.2,32.387c.787-.395 3.678-8.014 4.599-9.983 .919-1.841 3.151-6.174 8.538-10.642 5.252-4.333 7.093-6.96 8.275-8.012 1.05-1.05 9.063-7.357 9.327-1.184 .395,6.305-.921,10.641-.921,12.745-.13,2.101-.394,7.224-4.86,13.266-4.465,5.91-10.115,8.54-11.166,9.196-1.182.655-4.072,1.969-4.597,3.807 0,0-1.839-3.412-2.626-4.07-1.314-1.05-3.547-3.022-3.679-3.022-.93-.132-2.89-2.101-2.89-2.101z" fill="#1e1612" fill-rule="evenodd"/>
 <path d="m364.61,32.519c3.81-3.417 0-10.378 8.672-18.26 3.81-3.415 11.164-9.851 13.003-10.77 1.708-.788 3.677-1.445 3.94,3.546 .263,5.123-2.101,12.61-2.101,14.188 0,1.445-5.911,7.619-6.175,9.324-.13,1.709-10.116,7.49-12.085,8.278 0-.001-3.94-7.488-5.25-6.306z" fill="#5b453c" fill-rule="evenodd" stroke="#3c2c25" stroke-linecap="round" stroke-miterlimit="2.4142" stroke-width="1.152"/>
 <path d="m366.84,28.973c1.184-2.496.395-6.832 8.408-13.529 4.465-3.549 8.146-7.227 8.67-6.832 .525.261.525.526-1.313,2.891s-8.015,10.639-7.093,10.902 3.02-.527 4.333-.264c1.182,0-5.516,3.417-4.597,4.597 .787,1.053 5.518-1.311 5.123,0-.263,1.314-5.91,3.022-7.224,5.255-1.445,2.235-4.337,3.68-4.599,3.022-.39-.788-4.2-1.183-1.71-6.042z" fill="#41312b" fill-rule="evenodd" stroke="#4d3a33" stroke-linecap="round" stroke-miterlimit="2.4142" stroke-width="1.152"/>
 <path d="m367.37,29.102s1.84-6.306 3.677-7.354c1.841-1.185 1.445-.526.527,1.18-1.051,1.711-3.285,7.49-2.232,7.49 1.05.129-.264,4.07-1.708,3.81-1.45-.264-2.5-2.497-.27-5.126z" fill="#2b211d" fill-rule="evenodd"/>
 <path d="m369.86,17.149c-1.313-.132-1.707.658-2.76,2.103-1.837,2.232-1.705,2.756-2.101,5.252-.656,3.809-1.313,3.941-.264,4.597 0,0 .132,1.577-.787,1.577-4.728.264.264,3.941.395,3.941 1.182,1.445 1.839,1.445 2.494,1.84 4.072,2.756 1.184-1.053 1.184-1.053l-.394-1.18s.262-1.316-.527-1.185c-.655.134-3.414.134-.655-1.05 0,0-2.759-.261.526-1.05 0,0-.789-1.446 1.312-1.84 0,0 0-1.838-1.051-1.97-1.05,0-.132-.655.921-1.182 0,0-2.89-.263-1.577-.918 0,0 0-1.445.396-2.235 .393-.787 1.575-2.495 1.575-2.495s.657-1.838 1.839-2.233c.93-.524-.52-.919-.52-.919z" fill="#ccc" fill-rule="evenodd" stroke="#b3b3b3" stroke-linecap="round" stroke-miterlimit="2.4142" stroke-width=".792"/>
 <path d="m390.88,11.107c0-.921.392-2.627.13-3.022-.394-.393-.92-1.443-1.839-.656s-3.153,4.202-4.072,4.729c-.918.524-1.838,2.364.132,1.708 1.972-.526 2.232-.263 2.495.524 .396.79.524,3.417-.395,4.336-1.05.918-4.597,2.496-4.202,3.151 .264.658 3.152-1.314 3.415-.129 .395,3.283-4.728,9.457-2.363,8.143 2.494-1.313 5.518-7.487 5.777-9.328s.264-5.778.264-5.778l.788.395-.525-1.708 .4-2.365z" fill="#ccc" fill-rule="evenodd" stroke="#b3b3b3" stroke-linecap="round" stroke-miterlimit="2.4142" stroke-width=".792"/>
 <path d="m368.03,18.987c.525-.261 0-1.18-2.103,3.68-.655,1.314-.919,4.202-.264,4.86 .79.524 1.577.787 1.577.787s.132-.392-.395-.787c-.655-.524-1.183,0-1.049-1.969 0-1.316.394-2.496.656-3.154 .24-.656 1.43-3.283 1.56-3.417z" fill="#f0f0f0" fill-rule="evenodd"/>
 <path d="m389.44,9.399c-.396.787-.527,3.548-.657,4.335 0,.919.13,4.597-.132,5.121-.132.658-1.707,4.207 0,2.496 1.182-1.05 1.053-5.647 1.053-6.04 0-.395-.396-2.498-.264-3.022 .13-.658 0-2.89 0-2.89z" fill="#f0f0f0" fill-rule="evenodd"/>
 <path d="m79.689,246.37c3.154-2.498 13.664-13.534 15.106-15.372 1.577-1.838 6.308-4.068 7.095-5.911s-.132,1.316-.132,1.316 6.042-5.781 7.224-7.619c1.709-2.369 3.678-7.355 4.335-9.198s3.547-11.558 3.941-14.975c.263-3.284.525-12.741.263-16.55-.134-3.809-3.154-11.034-5.386-13.924-2.234-3.022-8.146-5.65-9.195-6.698-1.051-.921-3.283-5.913-.657-4.995 2.625.788 10.244,6.569 11.821,5.65 1.708-.787 1.84,3.154 5.649-3.677 3.678-6.964 5.91-7.49 6.829-6.045 1.054,1.577 1.577,8.801-.787,12.086-2.364,3.283-2.758,14.188-2.89,15.633-.264,1.577-.919,8.538-1.313,12.742-.525,4.07-2.232,14.186-3.809,18.651-1.707,4.465-6.306,13.663-9.721,16.812-3.546,3.154-11.297,8.672-14.188,10.773-3.017,2.24-14.183,11.3-14.183,11.3z" fill="#986f58" fill-rule="evenodd"/>
 <path d="m112.92 219.97c15.237-21.411 13.005-52.81 16.814-58.457 7.619-11.297-1.313-32.313-11.824-15.501 0 0-3.282 5.255-9.587 2.891-7.75-2.759-23.646 3.677-9.197 12.874 0 0 32.84 23.644 1.314 65.022" fill="none" stroke="#ac7d64" stroke-linecap="round" stroke-miterlimit="2.4142" stroke-width="1.584"/>
 <g fill="none">
  <path d="m113.06,219.31c13.792-19.832 12.479-51.491 15.893-57.27 6.438-10.641-.264-31.397-10.77-14.582 0,0-3.415,4.991-9.589,2.759-7.487-2.759-22.332,2.496-7.882,11.692 0,0 31,22.857.525,64.236" stroke="#a77b62"/>
  <path d="m113.06,218.79c12.609-18.392 12.215-50.182 14.974-56.356 5.388-9.852.919-30.344-9.587-13.529 0,0-3.547,4.859-9.591,2.495-7.093-2.627-21.017,1.446-6.567,10.641 0,0 29.292,22.199-.134,63.578" stroke="#a67960"/>
  <path d="m113.19,218.13c11.297-16.813 11.823-48.863 14.056-55.168 4.334-9.328 2.102-29.425-8.538-12.611 0,0-3.548,4.597-9.459,2.232-6.961-2.627-19.834.395-5.254,9.591 0,0 27.324,21.541-1.05,62.791" stroke="#a4775f"/>
  <path d="m113.32,217.47c9.852-15.367 11.297-47.55 13.004-53.855 3.285-8.804 3.285-28.638-7.225-11.823 0,0-3.677,4.333-9.588,2.101-6.568-2.627-18.521-.787-3.941,8.538 0,0 25.615,20.756-1.84,62.003" stroke="#a1755d"/>
  <path d="m113.45 216.95c8.538-13.922 11.034-46.368 12.084-52.937 2.232-8.143 4.336-27.585-6.305-10.773 0 0-3.679 4.207-9.457 1.84-6.305-2.496-17.209-1.84-2.627 7.355 0 0 23.776 20.101-2.627 61.348" stroke="#9e735c"/>
  <path d="m113.58 216.29c7.225-12.347 10.507-44.925 11.034-51.754 1.182-7.489 5.516-26.535-4.992-9.854 0 0-3.941 3.941-9.591 1.577-5.91-2.364-15.893-2.889-1.313 6.437 0 0 22.07 19.311-3.284 60.558" stroke="#9b7059"/>
 </g>
 <path d="m113.58 215.64c5.91-10.773 10.247-43.614 10.247-50.575s6.565-25.613-3.941-8.801-3.941 3.548-9.591 1.185c-5.647-2.235-14.451-3.941 0 5.384 0 0 20.361 18.652-4.073 59.771" fill="none" stroke="#986f58" stroke-linecap="round" stroke-miterlimit="2.4142" stroke-width="1.584"/>
 <path d="m246.52,177.8c-.129,4.073.263,6.305-.919,10.641-3.02,10.116-8.014,18.783-10.114,20.492-.919,1.053-1.183,3.417-2.101,4.335-.788.785-4.469.656-4.205-.263s6.438-10.118 6.699-12.482 4.729-5.91 5.647-8.01c.922-2.232 2.235-9.196 2.367-11.036 .25-1.83 2.75-5.9 2.62-3.67z" fill="#9c7058" fill-rule="evenodd"/>
 <path d="m110.69,223.25 3.677-.918-.787,1.967s11.166-5.25 16.812-3.675l-.655,1.311s11.56-2.627 16.943-1.704l-1.182.656s5.387-.791 6.831-.264c1.446.526 2.496.655 5.124,1.972 2.627,1.312-.657,2.364 11.034,3.149 11.036.79 17.077,2.498 32.183,2.105l17.603-1.053v.919l2.232-1.182s13.005-.527 14.451-1.182c0,0-.658-1.575-1.183-3.02-.657-1.445-1.576-3.546-1.576-4.207s-.658-3.546 1.313-4.857c0,0-7.354-1.837-11.691-1.579-4.203.397-8.145,1.708-8.145,1.708l2.63-2.364s-7.622,2.364-12.481,1.972c-4.991-.264-10.639,2.89-20.229,2.89-9.457,0-13.661-.526-13.661-.526l3.282-1.317s1.841,2.364-.786,1.972c0,0-6.83-.526-10.901-1.837-2.892-.919-3.415-1.972-5.256-1.972h-2.627l1.838-.785s-1.706-1.187-6.829-.919l-4.597.393 1.311-.79s-9.587-2.102-12.742-1.967c-3.02.129-6.042.785-10.243,3.02-4.44,2.49-9.44,9.33-11.67,12.08z" fill="#e1e0de" fill-rule="evenodd"/>
 <path d="m134.99,171.63c2.232,3.022 4.597,14.582 6.7,18.523 1.838,3.808 5.909,13.002 1.311,14.71-4.729,1.58-11.56-.392-13.924.919-2.232,1.316-6.829,3.288-5.252.397 1.575-3.024 4.333-14.45 4.597-21.02 .39-6.57 2.36-19.44 6.56-13.53z" fill="#a47761" fill-rule="evenodd"/>
 <path d="m272.53,197.51c-2.758-1.182 1.314-1.316-6.173,2.627-3.282,1.838-4.336,3.546-6.306,5.384-2.627,2.498-14.974,9.462-12.609,9.198 2.494-.263 15.893-6.834 17.602-5.518 3.283,2.891 2.628,8.667 3.809,7.619 1.052-.919 1.839-5.518.132-12.218-.52-2.1 4.73-6.44 3.55-7.09z" fill="#9c7058" fill-rule="evenodd"/>
 <path d="m286.06 210.12s-9.852 11.82-11.821 13.136-8.932 13.137-10.246 15.238c-1.313 1.838 3.283-12.218 5.253-13.529 1.971-1.316 2.366-1.709 5.386-4.336 2.89-2.63 11.43-10.51 11.43-10.51z" fill="#926954" fill-rule="evenodd"/>
 <path d="m277.39,224.44s6.569-2.89 8.014-3.02c1.445-.134 4.86-2.627 6.174-3.551 1.313-1.048 1.313.263.264.923-.919.656-4.992,4.992-5.386,6.566-.527,1.708 0,10.117-.264,13.793-.132,3.545-.524,4.599-.92,2.497-.263-1.972-.655-13.926-1.971-10.509-1.313,3.546-.787,16.684-.262,18.391 .396,1.575.92,28.111 1.052,31.922 .262,3.805-1.445,9.85-1.577,12.342 0,0 .263-9.719-.655-13.395-1.054-3.547-2.236-34.285-1.709-42.431 .02-.01 1.33-11.96-2.74-13.53z" fill="#926954" fill-rule="evenodd"/>
 <path d="m316.27,195.14s-5.518,9.983-10.117,10.902c-8.406,1.58-15.499,8.672-16.42,9.328-1.05.655 15.764-5.647 16.552-6.437 .921-.785 3.021-3.154 2.363-1.182s-3.413,12.084-6.305,16.291c-2.757,4.335-2.627,12.739-1.575,9.063 .92-3.551 1.575-7.882 3.81-11.691 0,0 4.466-11.562 5.124-13.792 .655-2.364 2.232-4.992 2.628-5.389 .27-.52 3.95-7.09 3.95-7.09z" fill="#926954" fill-rule="evenodd"/>
 <path d="m294.99,310.21c-.919-1.967-.919-4.201-2.232-3.939-1.446.398-3.022,1.709-4.992,1.055-1.969-.656-4.991-4.992-4.333-2.365s2.364,4.596 3.676,5.518c1.313,1.049 0,5.385 1.577,6.305 1.708,1.047 1.971,9.59 3.285,5.646 1.442-3.939-.922-7.223.395-8.537 1.3-1.31 3.27-2.36 2.61-3.68z" fill="#9a715a" fill-rule="evenodd"/>
 <path d="m237.72,225.22c2.626,2.628 7.88,7.614 9.852,13.923 1.97,6.174 1.314,21.019 1.97,23.248 .657,2.365 0,30.74-1.051,32.711-.919,1.973-3.154,5.91-3.546,8.539-.396,2.625 2.89,8.277 6.961,9.854 3.81,1.707 3.546,1.707 1.971,3.674-1.709,1.973-1.052,31.004-2.627,37.568-1.576,5.781-.789,6.963-.789,6.963s1.052-35.596-.919-41.902-1.707-6.959-3.283-8.275c-1.709-1.316-4.336-7.355-1.972-14.846 0,0 1.445-10.504 1.05-16.678-.655-6.309-.26-38.492-2.888-43.613-2.628-5.125-5.91-10.643-6.569-11.955s-.918-4.465-.918-4.465 1.19,3.82 2.77,5.26z" fill="#9a715a" fill-rule="evenodd"/>
 <path d="m268.85,200.79c-.525-1.575-1.708,2.89-14.845,10.246-2.494,1.316 2.498-.392 6.439-2.756 3.809-2.364 4.465-2.101 6.041,0 1.445,2.235 1.184.263.788-2.364-.52-2.5 1.97-3.95 1.58-5.13z" fill="#8e6852" fill-rule="evenodd"/>
 <path d="m261.36,239.15c-.264-2.365 2.627-12.875 7.224-16.157 4.728-3.417 17.471-17.209 17.471-19.837s13.269-9.194 15.501-9.72c2.364-.657 14.714-13.923 17.603-18.391 0,0 4.729-3.415 4.335-2.101 0,0 1.838,3.546-.789,10.904" fill="none" stroke="#956e59" stroke-linecap="round" stroke-miterlimit="2.4142" stroke-width="1.152"/>
 <path d="m261.75,238.1c-.392-2.369 2.628-12.874 7.227-16.162 4.597-3.283 17.472-17.076 17.472-19.703 0-2.757 12.873-8.801 15.105-9.458 2.364-.656 14.975-14.185 17.996-18.784 0,0 4.597-3.283 4.335-1.972" fill="none" stroke="#c28d71" stroke-linecap="round" stroke-miterlimit="2.4142" stroke-width=".792"/>
 <path d="m300.24,203.55s-7.88,4.599-8.934,6.566c-.918,1.972-3.94,3.546-3.94,3.546s4.994-5.513 4.994-6.566c0-.92 7.88-3.55 7.88-3.55z" fill="#8c6651" fill-rule="evenodd"/>
 <path d="m312.46 205s-8.669 22.067-9.851 29.686" fill="none" stroke="#956e59" stroke-linecap="round" stroke-miterlimit="2.4142" stroke-width="1.152"/>
 <path d="m313.77 202.5s-6.566 15.894-6.566 18.129c0 2.364-4.991 11.821-5.912 21.019" fill="none" stroke="#c28d71" stroke-linecap="round" stroke-miterlimit="2.4142" stroke-width=".792"/>
 <path d="m55.914,294.45c1.445-.393-3.941-1.578-2.891-5.387 1.182-4.203 5.254-6.697 3.285-6.305-7.092,1.31-9.063,14.32-.394,11.69z" fill="#956d55" fill-rule="evenodd"/>
 <path d="m58.673,234.28c-3.283,0-8.274,14.582-26.666,29.691-4.336,3.416-18.916,10.902-20.229,12.477-1.182,1.709 0,5.254 1.313,4.996 1.314-.398 3.023-.66 3.678-3.025 .656-2.23 16.683-11.691 20.492-13.793 11.822-6.96 22.726-30.35 21.412-30.35z" fill="#956d55" fill-rule="evenodd"/>
 <path d="m4.29,290.64c1.051.918 3.941,1.574 5.255,1.574s1.051,4.729 1.051,6.965c0,2.363 3.809,12.217 8.145,27.059 4.333,14.715 7.879,32.973 5.252,34.283l-4.204-25.875s-2.23-7.75-2.625-8.539c-.527-.918-6.568-14.711-6.832-17.865 0,0-3.151-10.51-4.073-11.955-1.05-1.57-2.89-6.29-1.969-5.64z" fill="#956d55" fill-rule="evenodd"/>
 <path d="m51.71,129.07c2.496-1.311-5.647,14.451-4.597,24.304 1.05,11.034 2.232,13.53 2.891,11.297 .655-2.367 4.333-16.552 5.647-19.442 1.314-3.022 3.68-7.619 3.68-3.415 0,4.333-4.862,25.481-5.386,28.767-.921,5.518-1.053,14.319-1.314,15.499-2.232,10.64 8.011,30.085 3.283,36.651-4.597,6.7-1.313,0-2.627-4.6-1.182-4.594-4.204-7.221-5.911-12.868-1.577-5.518-5.649-17.606-5.649-23.516s-1.838-10.51 1.05-30.345c0,0 3.022-19.44 8.933-22.33z" fill="#a0725b" fill-rule="evenodd"/>
 <path d="m234.96,225.62c-.395-1.182-.79-2.89-1.84-4.862-1.183-1.837-1.183-4.857-.393-6.7l2.625-4.857s2.628-3.417 5.649-9.064" fill="none" stroke="#654637" stroke-linecap="round" stroke-miterlimit="2.4142" stroke-width=".36"/>
 <path d="m272,226.54c.789-1.312 5.913-7.485 7.618-8.672" fill="none" stroke="#654637" stroke-linecap="round" stroke-miterlimit="2.4142" stroke-width=".36"/>
 <path d="m276.47,224.7s3.679.392 11.033-4.202" fill="none" stroke="#654637" stroke-linecap="round" stroke-miterlimit="2.4142" stroke-width=".36"/>
 <path d="m109.12 224.57s4.597-5.915 7.619-16.554" fill="none" stroke="#654637" stroke-linecap="round" stroke-miterlimit="2.4142" stroke-width=".36"/>
 <path d="m248.23,198.03c1.839-1.053 7.881-5.385 8.932-7.094 .922-1.708 8.538-6.961 6.832-2.891-1.577,3.941-4.6,7.094-7.883,8.41-3.29,1.31-11.56,3.94-7.88,1.57z" fill="#9c7058" fill-rule="evenodd"/>
 <path d="m38.838,369.33c-.131-1.049.261-4.332-.527-5.256-.918-1.047-2.232-3.809-.787-2.756 1.574,1.182 1.313,1.445 1.706,2.756 .658,2.236.263,5.256.263,5.256h-.655z" fill="#7e5a48" fill-rule="evenodd"/>
 <path d="m86.258,364.2c0-1.182.395-4.729-.656-6.174-1.182-1.58-3.022-2.102-2.364-1.182 1.574,1.836 2.364,7.092 2.364,7.221 .393.79.656.13.656.13z" fill="#7e5a48" fill-rule="evenodd"/>
 <path d="m261.62,375.1c1.183-1.836.656-4.072-.395-5.518-1.313-1.574-2.101-.525-1.183.135 1.183.785 1.706,6.566 1.051,5.25 .4.79.53.13.53.13z" fill="#7e5a48" fill-rule="evenodd"/>
 <path d="m297.09,363.81c0-1.447.919-4.467-.264-5.912-1.053-1.574-2.101-1.311-1.313-.393 1.969,2.234.919,5.91.919,6.045 .39.77.65.25.65.25z" fill="#7e5a48" fill-rule="evenodd"/>
 <path d="m240.34 147.2h-4.335" fill="none" stroke="#c39173" stroke-linecap="round" stroke-miterlimit="2.4142" stroke-width=".144"/>
 <path d="m244.28 139.18h-4.334" fill="none" stroke="#c39173" stroke-linecap="round" stroke-miterlimit="2.4142" stroke-width=".144"/>
 <path d="m235.35 134.98h-5.255" fill="none" stroke="#c39173" stroke-linecap="round" stroke-miterlimit="2.4142" stroke-width=".144"/>
 <path d="m237.32 127.36h-4.204" fill="none" stroke="#c39173" stroke-linecap="round" stroke-miterlimit="2.4142" stroke-width=".144"/>
 <path d="m226.16 124.08h-4.599" fill="none" stroke="#c39173" stroke-linecap="round" stroke-miterlimit="2.4142" stroke-width=".144"/>
 <path d="m224.58 129.99h-4.073" fill="none" stroke="#c39173" stroke-linecap="round" stroke-miterlimit="2.4142" stroke-width=".144"/>
 <path d="m215.91 126.97h-3.94" fill="none" stroke="#c39173" stroke-linecap="round" stroke-miterlimit="2.4142" stroke-width=".144"/>
 <path d="m209.74 123.42h-4.073" fill="none" stroke="#c39173" stroke-linecap="round" stroke-miterlimit="2.4142" stroke-width=".144"/>
 <path d="m217.88 134.58h-5.255" fill="none" stroke="#c39173" stroke-linecap="round" stroke-miterlimit="2.4142" stroke-width=".144"/>
 <path d="m240.34,130.64-5.385-.261" fill="none" stroke="#c39173" stroke-linecap="round" stroke-miterlimit="2.4142" stroke-width=".144"/>
 <path d="m233.38 124.08h-2.233" fill="none" stroke="#c39173" stroke-linecap="round" stroke-miterlimit="2.4142" stroke-width=".144"/>
 <path d="m216.96,121.71-2.76.393" fill="none" stroke="#c39173" stroke-linecap="round" stroke-miterlimit="2.4142" stroke-width=".144"/>
 <path d="m203.43 132.35h-4.336" fill="none" stroke="#c39173" stroke-linecap="round" stroke-miterlimit="2.4142" stroke-width=".144"/>
 <path d="m201.07,126.44-4.204-.395" fill="none" stroke="#c39173" stroke-linecap="round" stroke-miterlimit="2.4142" stroke-width=".144"/>
 <path d="m192.4,124.08-3.02.393" fill="none" stroke="#c39173" stroke-linecap="round" stroke-miterlimit="2.4142" stroke-width=".144"/>
 <path d="m201.07,122.1-2.234-.393" fill="none" stroke="#c39173" stroke-linecap="round" stroke-miterlimit="2.4142" stroke-width=".144"/>
 <path d="m185.7 123.81h-3.547" fill="none" stroke="#c39173" stroke-linecap="round" stroke-miterlimit="2.4142" stroke-width=".144"/>
 <path d="m176.24,123.16-4.597-.397" fill="none" stroke="#c39173" stroke-linecap="round" stroke-miterlimit="2.4142" stroke-width=".144"/>
 <path d="m182.55,121.71-2.102.393" fill="none" stroke="#c39173" stroke-linecap="round" stroke-miterlimit="2.4142" stroke-width=".144"/>
 <path d="m192.66 130.38h-2.892" fill="none" stroke="#c39173" stroke-linecap="round" stroke-miterlimit="2.4142" stroke-width=".144"/>
 <path d="m181.5 128.67h-3.941" fill="none" stroke="#c39173" stroke-linecap="round" stroke-miterlimit="2.4142" stroke-width=".144"/>
 <path d="m173.22 126.7h-5.252" fill="none" stroke="#c39173" stroke-linecap="round" stroke-miterlimit="2.4142" stroke-width=".144"/>
 <path d="m167.7,121.71-4.6-.658" fill="none" stroke="#c39173" stroke-linecap="round" stroke-miterlimit="2.4142" stroke-width=".144"/>
 <path d="m162.45,123.95-5.387-.263" fill="none" stroke="#c39173" stroke-linecap="round" stroke-miterlimit="2.4142" stroke-width=".144"/>
 <path d="m156.14 119.35h-4.335" fill="none" stroke="#c39173" stroke-linecap="round" stroke-miterlimit="2.4142" stroke-width=".144"/>
 <path d="m148.92,116.72-4.73-.921" fill="none" stroke="#c39173" stroke-linecap="round" stroke-miterlimit="2.4142" stroke-width=".144"/>
 <path d="m228.78,139.84-5.649.658" fill="none" stroke="#c39173" stroke-linecap="round" stroke-miterlimit="2.4142" stroke-width=".144"/>
 <path d="m215.65 139.18h-4.6" fill="none" stroke="#c39173" stroke-linecap="round" stroke-miterlimit="2.4142" stroke-width=".144"/>
 <path d="m204.09 137.61-1.313 1.05" fill="none" stroke="#c39173" stroke-linecap="round" stroke-miterlimit="2.4142" stroke-width=".144"/>
 <path d="m270.56 118.43h-3.285" fill="none" stroke="#c39173" stroke-linecap="round" stroke-miterlimit="2.4142" stroke-width=".144"/>
 <path d="m265.7,116.46-3.678.791" fill="none" stroke="#c39173" stroke-linecap="round" stroke-miterlimit="2.4142" stroke-width=".144"/>
 <path d="m277.91,120.79-3.941-.656" fill="none" stroke="#c39173" stroke-linecap="round" stroke-miterlimit="2.4142" stroke-width=".144"/>
 <path d="m263.99,121.06-3.285.395" fill="none" stroke="#c39173" stroke-linecap="round" stroke-miterlimit="2.4142" stroke-width=".144"/>
 <path d="m257.82,120.79-2.103.921" fill="none" stroke="#c39173" stroke-linecap="round" stroke-miterlimit="2.4142" stroke-width=".144"/>
 <path d="m93.877 113.17h-7.882" fill="none" stroke="#c39173" stroke-linecap="round" stroke-miterlimit="2.4142" stroke-width=".144"/>
 <path d="m99.131,110.94-4.597.263" fill="none" stroke="#c39173" stroke-linecap="round" stroke-miterlimit="2.4142" stroke-width=".144"/>
 <path d="m145.5 125.65h-3.151" fill="none" stroke="#c39173" stroke-linecap="round" stroke-miterlimit="2.4142" stroke-width=".144"/>
 <path d="m147.6,129.59-3.021-.655" fill="none" stroke="#c39173" stroke-linecap="round" stroke-miterlimit="2.4142" stroke-width=".144"/>
 <path d="m140.25,131.56-4.599-.263" fill="none" stroke="#c39173" stroke-linecap="round" stroke-miterlimit="2.4142" stroke-width=".144"/>
 <path d="m143.27,134.19-3.678.656" fill="none" stroke="#c39173" stroke-linecap="round" stroke-miterlimit="2.4142" stroke-width=".144"/>
 <path d="m136.31,138.13-2.89.393" fill="none" stroke="#c39173" stroke-linecap="round" stroke-miterlimit="2.4142" stroke-width=".144"/>
 <path d="m131.44,136.82-1.969.395" fill="none" stroke="#c39173" stroke-linecap="round" stroke-miterlimit="2.4142" stroke-width=".144"/>
 <path d="m143 121.71-2.364-1.05" fill="none" stroke="#c39173" stroke-linecap="round" stroke-miterlimit="2.4142" stroke-width=".144"/>
 <path d="m151.81,125.26-2.626-.656" fill="none" stroke="#c39173" stroke-linecap="round" stroke-miterlimit="2.4142" stroke-width=".144"/>
 <path d="m138.67 116.06-4.599-1.313" fill="none" stroke="#c39173" stroke-linecap="round" stroke-miterlimit="2.4142" stroke-width=".144"/>
 <path d="m89.28 133.67h-3.678" fill="none" stroke="#c39173" stroke-linecap="round" stroke-miterlimit="2.4142" stroke-width=".144"/>
 <path d="m120.54 119.48-3.283-1.051" fill="none" stroke="#c39173" stroke-linecap="round" stroke-miterlimit="2.4142" stroke-width=".144"/>
 <path d="m114.63 121.45h-3.023" fill="none" stroke="#c39173" stroke-linecap="round" stroke-miterlimit="2.4142" stroke-width=".144"/>
 <path d="m65.897 213.93-1.05 3.283" fill="none" stroke="#c39173" stroke-linecap="round" stroke-miterlimit="2.4142" stroke-width=".144"/>
 <path d="m67.21 218.13-1.969 3.025" fill="none" stroke="#c39173" stroke-linecap="round" stroke-miterlimit="2.4142" stroke-width=".144"/>
 <path d="m81.925,215.5-.921,3.288" fill="none" stroke="#c39173" stroke-linecap="round" stroke-miterlimit="2.4142" stroke-width=".144"/>
 <path d="m77.326 222.46-2.627 2.235" fill="none" stroke="#c39173" stroke-linecap="round" stroke-miterlimit="2.4142" stroke-width=".144"/>
 <path d="m77.326 208.02-1.575 2.499" fill="none" stroke="#c39173" stroke-linecap="round" stroke-miterlimit="2.4142" stroke-width=".144"/>
 <path d="m73.779,205-.655,3.02" fill="none" stroke="#c39173" stroke-linecap="round" stroke-miterlimit="2.4142" stroke-width=".144"/>
 <path d="m295.52,321.51c0-3.021-2.364,22.201-1.577,26.666 .79,4.598-1.182,9.457-2.891,11.561-1.442,1.84 3.286-3.287 4.863-2.498 1.705.791 2.101-2.1 1.705-3.283s-2.1-11.56-2.1-32.45z" fill="#926954" fill-rule="evenodd"/>
 <path d="m258.08,336.22c.392,3.287 3.283,28.9 5.384,31.395l-2.101,1.182s-2.892-.92-4.073.396c-1.183,1.182-2.496,2.102-2.496,2.102s1.709-3.418 2.892-4.072c1.182-.918 2.101-8.672 1.182-10.375-.78-1.72-.78-20.64-.78-20.64z" fill="#926954" fill-rule="evenodd"/>
 <path d="m28.066,316.65c.656,2.494 2.232,18.785 3.022,20.623 .919,1.838 3.939,15.631 5.384,17.076s.659,3.943-.393,4.201c-1.052.133-2.627.527-3.677,1.842-1.051,1.184-3.549,1.838-3.549,1.838s3.285-2.494 3.549-5.256c.131-2.625.395-8.93-.921-12.873-1.182-3.938-2.364-11.557-2.759-14.055-.393-2.49-.656-13.39-.656-13.39z" fill="#926954" fill-rule="evenodd"/>
 <path d="m74.435,315.07s.79,7.355.79,9.59c0,0-.263,8.93 1.05,12.873 1.182,3.939 1.577,11.955.919,13.133-.524,1.316.658,3.154 1.314,2.236 .526-.791 1.05,2.498 2.232,2.891 1.185.391 4.204-1.445 4.992-.791 .79.66-2.102-1.703-2.364-3.283-.129-1.709-4.597-13.4-4.992-17.994-.524-4.47-3.941-18.66-3.941-18.66z" fill="#926954" fill-rule="evenodd"/>
 <path d="m36.209,370.9c1.184,1.182 6.7,9.457 3.417,9.457-3.417,0-4.204-.393-5.386-1.709-1.183-1.18-.395-10.77 1.969-7.75z" fill="#b5b2a6" fill-rule="evenodd"/>
 <path d="m82.844,365.91c1.577.785 8.669,10.377 4.07,9.85-4.07-.393-6.174-1.967-6.174-3.283 0-1.18-.392-7.75 2.104-6.57z" fill="#b5b2a6" fill-rule="evenodd"/>
 <path d="m259.52,378c1.051-2.236 5.387,8.402 3.415,8.93-2.1.52-6.05-3.02-3.42-8.93z" fill="#b5b2a6" fill-rule="evenodd"/>
 <path d="m294.46,365.39c1.838-.92 9.325,9.719 4.729,10.246-6.96.78-7.22-8.94-4.73-10.25z" fill="#b5b2a6" fill-rule="evenodd"/>
</svg>
